{"title":"A Million Ways to Die 2014 NEW SOURCE VODRip x264 AC3-R33M","uid":10359712,"size":1214623374,"categoryP":"video","categoryS":"movies","magnet":"?xt=urn:btih:2c8e82226ffca080192ad2f3f09ef0fc94aaab3d&amp;dn=A+Million+Ways+to+Die+2014+NEW+SOURCE+VODRip+x264+AC3-R33M&amp;tr=udp%3A%2F%2Ftracker.openbittorrent.com%3A80&amp;tr=udp%3A%2F%2Fopen.demonii.com%3A1337&amp;tr=udp%3A%2F%2Ftracker.coppersurfer.tk%3A6969&amp;tr=udp%3A%2F%2Fexodus.desync.com%3A6969","seeders":2,"leechers":1,"uploader":"HeroMaster","files":-1,"time":1402785238,"description":":::::::::: R33M PRESENTS ::::::::::\n\n\n:::: A Million Ways to Die in the West 2014 CH SUB NEW SOURCE VODRip x264 AC3 ::::\n\n\n::Information::\n\n\nSOURCE: A Friend\n\nNotes: New 576p VOD Source, this is NOT from the LETV file. This is much higher Quality Source with studio audio. This also has english subs for the foreign parts. Enjoy &lt;a href=&quot;\nhttp://www.imdb.com/title/tt2557490/&quot; rel=&quot;nofollow&quot; target=&quot;_NEW&quot;&gt;\nhttp://www.imdb.com/title/tt2557490/&lt;/a&gt;\n\nAs a cowardly farmer begins to fall for the mysterious new woman in town, he must put his new-found courage to the test when her husband, a notorious gun-slinger, announces his arrival\n\nGeneral\nComplete name: A Million Ways to Die in the West 2014 CH SUB NEW SOURCE VODRip x264 AC3-R33M.mkv\nFormat: Matroska\nFormat version: Version 2\nFile size: 1.11 GiB\nDuration: 1h 55mn\nOverall bit rate mode: Variable\nOverall bit rate: 1 382 Kbps\nEncoded date: UTC 2014-06-14 14:37:23\nWriting application: mkvmerge v6.8.0 ('Theme for Great Cities') 32bit built on Mar 2 2014 21:27:07\nWriting library: libebml v1.3.0 + libmatroska v1.4.1\n\nVideo\nID: 1\nFormat: AVC\nFormat/Info: Advanced Video Codec\nFormat profile: &lt;a class=&quot;__cf_email__&quot; href=&quot;/cdn-cgi/l/email-protection&quot; data-cfemail=&quot;450d2c222d0509716b74&quot;&gt;[email&amp;#160;protected]&lt;/a&gt;&lt;script cf-hash='f9e31' type=&quot;text/javascript&quot;&gt;\n/* &lt;![CDATA[ */!function(){try{var t=&quot;currentScript&quot;in document?document.currentScript:function(){for(var t=document.getElementsByTagName(&quot;script&quot;),e=t.length;e--;)if(t[e].getAttribute(&quot;cf-hash&quot;))return t[e]}();if(t&amp;&amp;t.previousSibling){var e,r,n,i,c=t.previousSibling,a=c.getAttribute(&quot;data-cfemail&quot;);if(a){for(e=&quot;&quot;,r=parseInt(a.substr(0,2),16),n=2;a.length-n;n+=2)i=parseInt(a.substr(n,2),16)^r,e+=String.fromCharCode(i);e=document.createTextNode(e),c.parentNode.replaceChild(e,c)}}}catch(u){}}();/* ]]&gt; */&lt;/script&gt;\nFormat settings, CABAC: Yes\nFormat settings, ReFrames: 3 frames\nCodec ID: V_MPEG4/ISO/AVC\nDuration: 1h 55mn\nBit rate mode: Variable\nBit rate: 1 099 Kbps\nMaximum bit rate: 40.0 Mbps\nWidth: 720 pixels\nHeight: 304 pixels\nDisplay aspect ratio: 2.35:1\nFrame rate mode: Constant\nFrame rate: 23.976 fps\nColor space: YUV\nChroma subsampling: 4:2:0\nBit depth: 8 bits\nScan type: Progressive\nBits/(Pixel*Frame): 0.209\nStream size: 905 MiB (79%)\nDefault: Yes\nForced: No\nColor primaries: BT.709\nTransfer characteristics: BT.709\nMatrix coefficients: BT.709\n\nAudio\nID: 2\nFormat: AC-3\nFormat/Info: Audio Coding 3\nMode extension: CM (complete main)\nFormat settings, Endianness: Big\nCodec ID: A_AC3\nDuration: 1h 55mn\nBit rate mode: Constant\nBit rate: 256 Kbps\nChannel(s): 2 channels\nChannel positions: Front: L R\nSampling rate: 48.0 KHz\nBit depth: 16 bits\nCompression mode: Lossy\nStream size: 211 MiB (19%)\nLanguage: English\nDefault: Yes\nForced: No \n\n\n::Greetz and Respect::\n\n\nALL CREDIT Goes to R33M for Encoding and ABG for Distribution.\n\n\n::Poster::\n\n &lt;a href=&quot;\nhttp://i.imgur.com/pdWWdjT.jpg&quot; rel=&quot;nofollow&quot; target=&quot;_NEW&quot;&gt;\nhttp://i.imgur.com/pdWWdjT.jpg&lt;/a&gt;\n\n\n::Screenshots::\n\n &lt;a href=&quot;\nhttp://i.imgur.com/jeV2qKZ.jpg&quot; rel=&quot;nofollow&quot; target=&quot;_NEW&quot;&gt;\nhttp://i.imgur.com/jeV2qKZ.jpg&lt;/a&gt;\n\n &lt;a href=&quot;\nhttp://i.imgur.com/xqp4BRQ.jpg&quot; rel=&quot;nofollow&quot; target=&quot;_NEW&quot;&gt;\nhttp://i.imgur.com/xqp4BRQ.jpg&lt;/a&gt;\n\n &lt;a href=&quot;\nhttp://i.imgur.com/IH5cBJo.jpg&quot; rel=&quot;nofollow&quot; target=&quot;_NEW&quot;&gt;\nhttp://i.imgur.com/IH5cBJo.jpg&lt;/a&gt;\n\n\nSEED AND ENJOY!","torrent":{"xt":"urn:btih:2c8e82226ffca080192ad2f3f09ef0fc94aaab3d","amp;dn":"A+Million+Ways+to+Die+2014+NEW+SOURCE+VODRip+x264+AC3-R33M","amp;tr":["udp%3A%2F%2Ftracker.openbittorrent.com%3A80","udp%3A%2F%2Fopen.demonii.com%3A1337","udp%3A%2F%2Ftracker.coppersurfer.tk%3A6969","udp%3A%2F%2Fexodus.desync.com%3A6969"],"infoHash":"2c8e82226ffca080192ad2f3f09ef0fc94aaab3d","infoHashBuffer":{"type":"Buffer","data":[44,142,130,34,111,252,160,128,25,42,210,243,240,158,240,252,148,170,171,61]},"announce":[],"urlList":[]}}